<svg
  data-v-0dd9719b=""
  version="1.0"
  xmlns="http://www.w3.org/2000/svg"
  xmlns:xlink="http://www.w3.org/1999/xlink"
  width="100%"
  height="100%"
  viewBox="0 0 340.000000 250.000000"
  preserveAspectRatio="xMidYMid meet"
  color-interpolation-filters="sRGB"
  style="margin: auto"
>
  <rect
    data-v-0dd9719b=""
    x="0"
    y="0"
    width="100%"
    height="100%"
    fill="#ffffff"
    fill-opacity="1"
    class="background"
  ></rect>
  <rect
    data-v-0dd9719b=""
    x="0"
    y="0"
    width="100%"
    height="100%"
    fill="url(#watermark)"
    fill-opacity="1"
    class="watermarklayer"
  ></rect>
  <g
    data-v-0dd9719b=""
    fill="#000000"
    class="icon-text-wrapper icon-svg-group iconsvg"
    transform="translate(106.1500015258789,76.63306045532227)"
  >
    <g class="iconsvg-imagesvg" transform="translate(28.849998474121094,0)">
      <g>
        <rect
          fill="#000000"
          fill-opacity="0"
          stroke-width="2"
          x="0"
          y="0"
          width="70"
          height="70.23387881645881"
          class="image-rect"
        ></rect>
        <svg
          filter="url(#colors9311795886)"
          x="0"
          y="0"
          width="70"
          height="70.23387881645881"
          filtersec="colorsf9108696861"
          class="image-svg-svg primary"
          style="overflow: visible"
        >
          <svg
            version="1.1"
            id="图层_1"
            xmlns="http://www.w3.org/2000/svg"
            xmlns:xlink="http://www.w3.org/1999/xlink"
            x="0px"
            y="0px"
            viewBox="0.8700008392333984 1.1000007390975952 89.69999694824219 90"
            enable-background="new 0 0 91.83 91.83"
            xml:space="preserve"
          >
            <path
              fill="#0C0C0C"
              d="M90.57,42.9c-0.2-2.3-0.5-4.5-1-6.7l-16.7,9.6l-12.9-9.1l0.1-0.7l26.9-7.9c-0.9-2-1.9-3.9-3-5.7L61.47,29
	l4.6-23.1c-1.9-1-3.9-1.8-5.9-2.5L54.67,31l-1.9,0.6L39.17,22l10.1-20.8c-1.2-0.1-2.3-0.1-3.5-0.1s-2.4,0-3.5,0.1l-8.3,17.1
	l-13.5-9.5c-1.8,1.2-3.5,2.6-5.1,4.1L31.17,24l-7.5,15.5L4.77,27.6c-0.9,1.9-1.6,4-2.2,6.1l13.7,8.6l-15.4,4.5
	c0,2.2,0.2,4.3,0.6,6.4l18.2-5.3L8.47,71c1.3,1.9,2.8,3.8,4.3,5.5l13.5-27.9l19.9,12.6l-31,17.8c1.7,1.5,3.4,3,5.3,4.2l27.1-15.5
	L42.97,91c1,0.1,1.9,0.1,2.9,0.1c1.2,0,2.4,0,3.6-0.1l4.9-24.6l21.4,13.5c1.6-1.4,3.1-3,4.5-4.6l-21.7-13.7l14.3-8.2l14.6,10.3
	c0.8-2,1.6-4.1,2.1-6.2L78.87,50L90.57,42.9z M45.07,33.8l-13.6,4l4.9-10.1L45.07,33.8z M31.27,44.4l20.3-5.9l1.4,1l-3.3,16.6
	L31.27,44.4z M56.27,55.3l2.3-11.9l8.3,5.8L56.27,55.3z"
            ></path>
          </svg>
        </svg>
        <defs>
          <filter id="colors9311795886">
            <feColorMatrix
              type="matrix"
              values="0 0 0 0 0  0 0 0 0 0.69140625  0 0 0 0 0.25  0 0 0 1 0"
              class="icon-fecolormatrix"
            ></feColorMatrix>
          </filter>
          <filter id="colorsf9108696861">
            <feColorMatrix
              type="matrix"
              values="0 0 0 0 0.99609375  0 0 0 0 0.99609375  0 0 0 0 0.99609375  0 0 0 1 0"
              class="icon-fecolormatrix"
            ></feColorMatrix>
          </filter>
          <filter id="colorsb9070936364">
            <feColorMatrix
              type="matrix"
              values="0 0 0 0 0  0 0 0 0 0  0 0 0 0 0  0 0 0 1 0"
              class="icon-fecolormatrix"
            ></feColorMatrix>
          </filter>
        </defs>
      </g>
    </g>
    <g transform="translate(0,33.23387908935547)">
      <g
        data-gra="path-name"
        fill-rule="evenodd"
        class="tp-name iconsvg-namesvg"
      >
        <g transform="scale(1)">
          <g>
            <path
              d="M94.9 35.9L98.7 40.9 93.9 44.5 90.1 39.5 87 41.9 96.8 54.7 99.8 52.4 96.1 47.4 100.9 43.8 104.6 48.7 107.7 46.4 98 33.6 94.9 35.9ZM123.1 9.4L120.3 9.1 121.1 3 117.7 2.6 116.9 8.7 114.3 8.3 115.3 0.5 111.7 0.1 110.3 11.7 126.2 13.7 127.7 2 124.1 1.5 123.1 9.4ZM32.8 35.8L26.5 42.1A3.2 3.2 0 0 1 21.4 42.6 3.2 3.2 0 0 1 21.9 37.5L28.2 31.2 25.4 28.5 19.1 34.8C15.7 38.3 15.9 42.1 18.9 45.1A6.7 6.7 0 0 0 29.2 44.9L35.5 38.5 32.8 35.8ZM89.1 54L85 54.2A4.4 4.4 0 0 1 82.1 57.1 4.2 4.2 0 0 1 76.6 54C75.8 51.5 76.9 49.2 79.4 48.4A4.4 4.4 0 0 1 80 48.3 4.4 4.4 0 0 1 83.1 48.8L86.5 46.7C84.4 44.6 81.3 43.8 78.3 44.8A8.2 8.2 0 0 0 72.8 55.2 8.2 8.2 0 0 0 83.2 60.7 8.3 8.3 0 0 0 89.1 54ZM108.5 16.6L115.2 23.3A62.2 62.2 0 0 0 117.4 25.4 0 0 0 0 1 117.4 25.4L117.4 25.4A14.4 14.4 0 0 1 116.6 25.2 45.7 45.7 0 0 0 114.4 24.9L105 23.9 103.2 27.7 120.4 29.1 122.2 25.3 110.3 12.8 108.5 16.6ZM69.9 63.5L66.4 57.5A4.8 4.8 0 0 0 69.4 52.9C69.4 49.6 67 47.3 62.9 47.3L56.9 47.3 56.8 63.4 60.6 63.4 60.7 58.1 62.7 58.2 65.6 63.4 69.9 63.5ZM18.6 15.4L15.4 17 17.6 21.3 6.5 27 8.2 30.4 19.3 24.8 21.6 29.1 24.8 27.5 18.6 15.4ZM46.8 61.2L50.7 62.6 50 45.2 46.5 44 35.1 57.1 39 58.5 40.8 56.4 46.8 58.5 46.8 61.2ZM15.9 0L0 2.6 1.1 9.6C1.9 14.1 5.6 17.3 10.4 16.5A8 8 0 0 0 17 6.9L15.9 0ZM114.7 38.2L102.1 28.1 99.7 31.1 112.2 41.2 114.7 38.2ZM4.2 5.8L13 4.4 13.5 7.5C13.8 9.8 12.4 12.1 9.7 12.5A4.2 4.2 0 0 1 4.7 9L4.2 5.8ZM43 53.6L45.2 51A17.1 17.1 0 0 0 45.5 50.7C45.5 50.6 45.6 50.5 45.7 50.4A74.6 74.6 0 0 1 46.7 49.1L46.7 49.1A74.6 74.6 0 0 1 46.7 50.7C46.7 50.8 46.7 51 46.7 51.1A17.1 17.1 0 0 0 46.7 51.6L46.7 54.9 43 53.6ZM60.8 50.9L63.4 50.9A1.8 1.8 0 0 1 65.3 52.5 2.1 2.1 0 0 1 65.3 52.8 2.1 2.1 0 0 1 65.3 53.2 1.8 1.8 0 0 1 63.4 54.7L60.7 54.7 60.8 50.9Z"
              transform="translate(0, 0)"
            ></path>
          </g>
          <!---->
          <!---->
          <!---->
          <!---->
          <!---->
          <!---->
          <!---->
        </g>
      </g>
      <!---->
    </g>
  </g>
  <defs v-gra="od"></defs>
</svg>
